<?xml version="1.0" standalone="no"?>
<!DOCTYPE svg PUBLIC "-//W3C//DTD SVG 20010904//EN"
 "http://www.w3.org/TR/2001/REC-SVG-20010904/DTD/svg10.dtd">
<svg version="1.0" xmlns="http://www.w3.org/2000/svg"
 width="400.000000pt" height="400.000000pt" viewBox="0 0 400.000000 400.000000"
 preserveAspectRatio="xMidYMid meet">
<metadata>
Created by potrace 1.11, written by Peter Selinger 2001-2013
</metadata>
<g transform="translate(0.000000,400.000000) scale(0.100000,-0.100000)"
fill="#000000" stroke="none">
<path d="M3329 3356 c-2 -3 -22 -6 -44 -9 -22 -2 -53 -9 -69 -16 -16 -6 -31
-10 -33 -7 -3 2 -21 -3 -41 -11 -20 -8 -38 -14 -40 -13 -5 4 -228 -73 -241
-84 -8 -6 -16 -10 -18 -8 -5 4 -115 -37 -128 -48 -5 -5 -14 -9 -20 -10 -20 -4
-78 -30 -74 -34 120 -125 494 -496 500 -496 5 0 9 4 9 10 0 5 11 33 24 62 67
148 174 467 200 598 3 14 7 35 10 48 4 16 0 22 -13 22 -10 0 -20 -2 -22 -4z"/>
<path d="M1738 3195 c-2 -2 -25 -5 -53 -9 -97 -12 -121 -17 -220 -47 -303 -92
-560 -289 -730 -559 -49 -77 -128 -252 -140 -310 -2 -8 -4 -15 -5 -15 -2 0 -4
-11 -19 -80 -23 -103 -28 -149 -30 -277 l-1 -86 -266 -266 c-147 -147 -264
-269 -261 -272 5 -6 26 -9 116 -19 30 -4 59 -9 63 -11 5 -3 23 -7 41 -9 30 -3
180 -25 202 -30 6 -1 33 -5 60 -9 28 -4 73 -11 100 -16 28 -5 65 -11 84 -14
27 -4 53 -23 115 -87 45 -45 92 -89 106 -98 41 -27 80 -63 75 -71 -3 -5 37
-50 89 -102 92 -92 93 -95 101 -153 4 -33 9 -69 11 -80 2 -11 6 -40 9 -65 3
-25 8 -56 11 -70 3 -14 7 -41 9 -60 5 -34 42 -277 51 -335 3 -16 6 -31 8 -32
2 -2 22 17 45 42 22 24 41 43 41 41 0 -1 112 109 250 246 l250 248 47 1 c27 0
57 2 68 4 11 2 40 7 65 10 76 10 103 15 153 30 26 8 47 11 47 8 0 -3 6 -1 13
4 6 5 35 18 62 28 73 26 222 104 272 142 24 18 45 33 48 33 12 0 174 154 225
215 30 35 88 117 112 160 35 60 89 167 92 183 1 10 8 31 15 47 13 30 49 156
56 196 24 124 24 381 0 484 -19 82 -39 152 -53 188 -7 15 -15 40 -18 55 -4 15
-11 32 -16 38 -9 13 -1 42 19 62 7 7 13 20 13 28 0 7 -123 138 -274 290 l-274
276 -35 -13 c-33 -12 -41 -10 -104 18 -84 38 -103 45 -128 50 -11 2 -24 8 -29
13 -4 4 -15 6 -22 3 -8 -3 -14 0 -14 7 0 6 -4 9 -9 6 -5 -4 -20 -2 -34 3 -14
5 -45 12 -68 16 -24 3 -57 8 -74 12 -29 6 -262 13 -267 8z"/>
<path d="M735 807 l-136 -137 31 -30 c17 -16 35 -30 41 -30 6 0 70 59 142 131
l130 130 -36 36 -36 36 -136 -136z"/>
</g>
</svg>
